<?xml version="1.0" encoding="UTF-8"?>
<svg xmlns="http://www.w3.org/2000/svg" xmlns:xlink="http://www.w3.org/1999/xlink" version="1.1" id="Layer_1" x="0px" y="0px" viewBox="0 0 24 24" style="enable-background:new 0 0 24 24;" xml:space="preserve">
<g>
	<path style="fill:#303C42;" d="M21,1H5C3.897,1,3,1.897,3,3v16c0,1.103,0.897,2,2,2h16c1.103,0,2-0.897,2-2V3   C23,1.897,22.103,1,21,1z"/>
	<path style="fill:#4FC3F7;" d="M5,2h16c0.551,0,1,0.449,1,1v11.293l-5.146-5.146c-0.195-0.195-0.512-0.195-0.707,0l-5.396,5.396   l-1.896-1.896c-0.195-0.195-0.512-0.195-0.707,0L4,16.793V3C4,2.449,4.449,2,5,2z"/>
	<path style="opacity:0.1;" d="M21.5,5c0-1.378-1.122-2.5-2.5-2.5H4.154C4.065,2.649,4,2.814,4,3v13.793l4.146-4.146   c0.195-0.195,0.512-0.195,0.707,0l1.896,1.896l5.396-5.396c0.195-0.195,0.512-0.195,0.707,0l4.646,4.646V5z"/>
	<path style="fill:#7CB342;" d="M21,20H5c-0.551,0-1-0.449-1-1v-0.793l4.5-4.5l3.146,3.146c0.195,0.195,0.512,0.195,0.707,0   s0.195-0.512,0-0.707l-0.896-0.896l5.043-5.043l5.5,5.5V19C22,19.551,21.551,20,21,20z"/>
	<path style="opacity:0.1;" d="M21,19.5H5c-0.551,0-1-0.449-1-1V19c0,0.551,0.449,1,1,1h16c0.551,0,1-0.449,1-1v-0.5   C22,19.051,21.551,19.5,21,19.5z"/>
	<circle style="fill:#303C42;" cx="10.5" cy="7.5" r="2.5"/>
	<circle style="fill:#FFCA28;" cx="10.5" cy="7.5" r="1.5"/>
	
		<rect x="10.538" y="12.677" transform="matrix(0.7071 -0.7071 0.7071 0.7071 -4.958 13.7374)" style="opacity:0.2;fill:#FFFFFF;" width="7.132" height="0.354"/>
	<path style="opacity:0.2;fill:#FFFFFF;" d="M4.25,18.457l4.5-4.5l-0.25-0.25l-4.5,4.5V18.5c0,0.248,0.1,0.468,0.25,0.643V18.457z"/>
	<path style="opacity:0.1;" d="M21.5,19.846v-4.639l-5-5l-5.043,5.043l0.896,0.896c0.195,0.195,0.195,0.512,0,0.707   s-0.512,0.195-0.707,0L8.5,13.707l-4.5,4.5V19c0,0.551,0.449,1,1,1h16C21.186,20,21.351,19.935,21.5,19.846z"/>
	<path style="fill:#303C42;" d="M19,3H3C1.897,3,1,3.897,1,5v16c0,1.103,0.897,2,2,2h16c1.103,0,2-0.897,2-2V5   C21,3.897,20.103,3,19,3z"/>
	<path style="fill:#4FC3F7;" d="M3,4h16c0.551,0,1,0.449,1,1v11.293l-5.146-5.146c-0.195-0.195-0.512-0.195-0.707,0L8.75,16.543   l-1.896-1.896c-0.195-0.195-0.512-0.195-0.707,0L2,18.793V5C2,4.449,2.449,4,3,4z"/>
	<path style="fill:#7CB342;" d="M19,22H3c-0.551,0-1-0.449-1-1v-0.793l4.5-4.5l3.146,3.146c0.195,0.195,0.512,0.195,0.707,0   s0.195-0.512,0-0.707L9.457,17.25l5.043-5.043l5.5,5.5V21C20,21.551,19.551,22,19,22z"/>
	<path style="opacity:0.1;" d="M19,21.5H3c-0.551,0-1-0.449-1-1V21c0,0.551,0.449,1,1,1h16c0.551,0,1-0.449,1-1v-0.5   C20,21.051,19.551,21.5,19,21.5z"/>
	<circle style="fill:#303C42;" cx="8.5" cy="9.5" r="2.5"/>
	<circle style="fill:#FFCA28;" cx="8.5" cy="9.5" r="1.5"/>
	
		<rect x="8.538" y="14.677" transform="matrix(0.7071 -0.7071 0.7071 0.7071 -6.958 12.909)" style="opacity:0.2;fill:#FFFFFF;" width="7.132" height="0.354"/>
	<path style="opacity:0.2;fill:#FFFFFF;" d="M2.25,20.457l4.5-4.5l-0.25-0.25l-4.5,4.5V20.5c0,0.248,0.1,0.468,0.25,0.643V20.457z"/>
	<linearGradient id="SVGID_1_" gradientUnits="userSpaceOnUse" x1="0.1137" y1="6.4573" x2="23.8863" y2="17.5427">
		<stop offset="0" style="stop-color:#FFFFFF;stop-opacity:0.2"/>
		<stop offset="1" style="stop-color:#FFFFFF;stop-opacity:0"/>
	</linearGradient>
	<path style="fill:url(#SVGID_1_);" d="M21,1H5C3.897,1,3,1.897,3,3C1.897,3,1,3.897,1,5v16c0,1.103,0.897,2,2,2h16   c1.103,0,2-0.897,2-2c1.103,0,2-0.897,2-2V3C23,1.897,22.103,1,21,1z"/>
</g>
<g>
</g>
<g>
</g>
<g>
</g>
<g>
</g>
<g>
</g>
<g>
</g>
<g>
</g>
<g>
</g>
<g>
</g>
<g>
</g>
<g>
</g>
<g>
</g>
<g>
</g>
<g>
</g>
<g>
</g>

	<metadata>
		<rdf:RDF xmlns:rdf="http://www.w3.org/1999/02/22-rdf-syntax-ns#" xmlns:rdfs="http://www.w3.org/2000/01/rdf-schema#" xmlns:dc="http://purl.org/dc/elements/1.1/">
			<rdf:Description about="https://iconscout.com/legal#licenses" dc:title="photo; photography; image; picture; images; stack (2)" dc:description="photo; photography; image; picture; images; stack (2)" dc:publisher="Iconscout" dc:date="2017-03-22" dc:format="image/svg+xml" dc:language="en">
				<dc:creator>
					<rdf:Bag>
						<rdf:li>Alpár - Etele Méder</rdf:li>
					</rdf:Bag>
				</dc:creator>
			</rdf:Description>
		</rdf:RDF>
    </metadata></svg>
